<svg width="444" height="381" viewBox="0 0 444 381" fill="none" xmlns="http://www.w3.org/2000/svg">
<path d="M10.0371 262.383C21.1699 262.09 28.3477 259.99 31.5703 256.084C34.793 252.08 36.4043 246.221 36.4043 238.506V96.416C27.2246 86.1621 21.5605 80.1562 19.4121 78.3984C17.2637 76.543 14.334 75.3711 10.623 74.8828V67.2656H74.1973L177.322 193.682H178.787V104.473C178.787 94.3164 176.932 87.0898 173.221 82.793C169.51 78.3984 162.088 75.7617 150.955 74.8828V67.2656H215.555V74.8828C206.18 76.4453 199.881 78.5449 196.658 81.1816C193.533 83.8184 191.971 89.7266 191.971 98.9062V275.566H183.621L51.6387 115.166H49.5879V232.939C49.5879 242.119 50.8574 248.613 53.3965 252.422C57.4004 258.574 65.6035 261.895 78.0059 262.383V270H10.0371V262.383ZM326.736 67.2656V74.8828C316.385 75.4688 309.744 76.25 306.814 77.2266C303.885 78.2031 302.42 80.2539 302.42 83.3789C302.42 84.7461 302.664 86.2598 303.152 87.9199C303.738 89.4824 305.008 92.3633 306.961 96.5625L344.461 168.633H346.951L379.178 115.898C381.229 112.676 383.377 108.721 385.623 104.033C389.041 96.9043 390.75 91.6309 390.75 88.2129C390.75 82.9395 388.65 79.4238 384.451 77.666C381.619 76.4941 375.369 75.5664 365.701 74.8828V67.2656H431.619V74.8828C426.834 75.7617 423.025 76.7871 420.193 77.959C416.58 79.8145 413.553 82.6465 411.111 86.4551L353.836 179.766V234.99C353.836 246.416 355.789 253.789 359.695 257.109C363.602 260.332 370.926 262.09 381.668 262.383V270H277.518V262.383C288.65 262.09 296.023 260.186 299.637 256.67C303.348 253.154 305.203 245.928 305.203 234.99V190.898L250.418 91.2891C246.805 84.7461 242.361 80.1562 237.088 77.5195C233.572 75.8594 230.008 74.9805 226.395 74.8828V67.2656H326.736Z" fill="#846A49"/>
<path d="M1.73438 354.562C4.29688 354.438 6.10938 354.078 7.17188 353.484C8.95312 352.484 9.84375 350.594 9.84375 347.812V301.359C9.84375 298.641 9.04688 296.797 7.45312 295.828C6.48438 295.266 4.57812 294.844 1.73438 294.562V292.125H34.2188V294.562C31.4062 294.719 29.4531 295.094 28.3594 295.688C26.5469 296.688 25.6406 298.578 25.6406 301.359V321.234H48.5156V301.359C48.5156 298.578 47.6562 296.703 45.9375 295.734C44.875 295.141 42.8906 294.75 39.9844 294.562V292.125H72.6562V294.562C69.8438 294.781 67.9219 295.188 66.8906 295.781C65.1719 296.75 64.3125 298.609 64.3125 301.359V347.812C64.3125 350.625 65.2656 352.531 67.1719 353.531C68.2656 354.125 70.0938 354.469 72.6562 354.562V357H39.9844V354.562C42.7344 354.469 44.6875 354.094 45.8438 353.438C47.625 352.438 48.5156 350.562 48.5156 347.812V325.688H25.6406V347.812C25.6406 350.656 26.6094 352.578 28.5469 353.578C29.6719 354.141 31.5625 354.469 34.2188 354.562V357H1.73438V354.562ZM95.7656 351.516C97.3281 351.516 98.7812 351.047 100.125 350.109C100.875 349.547 101.766 348.672 102.797 347.484V333.469C100.234 334.094 97.9844 335.078 96.0469 336.422C92.7656 338.703 91.125 341.609 91.125 345.141C91.125 347.234 91.5938 348.828 92.5312 349.922C93.5 350.984 94.5781 351.516 95.7656 351.516ZM77.1562 348.047C77.1562 343.734 79.2344 340.312 83.3906 337.781C87.5469 335.25 94.0625 332.703 102.938 330.141V323.156C102.938 320.312 102.328 318.219 101.109 316.875C99.9219 315.5 97.7969 314.812 94.7344 314.812C93.0156 314.812 91.5938 315.141 90.4688 315.797C89.375 316.422 88.8281 317.219 88.8281 318.188C88.8281 318.562 88.8906 318.875 89.0156 319.125C89.1406 319.375 89.3281 319.641 89.5781 319.922L90.1406 320.578C90.5781 321.109 90.9219 321.703 91.1719 322.359C91.4531 322.984 91.5938 323.656 91.5938 324.375C91.5938 326.188 90.9844 327.594 89.7656 328.594C88.5781 329.562 87.1875 330.047 85.5938 330.047C83.75 330.047 82.1719 329.5 80.8594 328.406C79.5781 327.312 78.9375 325.734 78.9375 323.672C78.9375 319.984 80.6719 317.062 84.1406 314.906C87.6094 312.75 91.875 311.672 96.9375 311.672C102.375 311.672 106.922 312.719 110.578 314.812C114.203 316.938 116.016 320.844 116.016 326.531V349.781C116.016 350.469 116.188 351.062 116.531 351.562C116.906 352.031 117.312 352.266 117.75 352.266C118.125 352.266 118.453 352.203 118.734 352.078C119.047 351.922 119.516 351.531 120.141 350.906L121.594 352.922C119.719 355.109 117.641 356.641 115.359 357.516C113.922 358.078 112.406 358.359 110.812 358.359C107.969 358.359 105.891 357.531 104.578 355.875C103.828 354.938 103.281 353.547 102.938 351.703C100.281 354.359 97.2812 356.234 93.9375 357.328C91.9062 358.016 89.9062 358.359 87.9375 358.359C85.3125 358.359 82.8594 357.531 80.5781 355.875C78.2969 354.188 77.1562 351.578 77.1562 348.047ZM128.484 298.125C128.484 296.062 129.203 294.312 130.641 292.875C132.109 291.406 133.875 290.672 135.938 290.672C137.969 290.672 139.703 291.406 141.141 292.875C142.609 294.312 143.344 296.062 143.344 298.125C143.344 300.188 142.609 301.953 141.141 303.422C139.703 304.859 137.969 305.578 135.938 305.578C133.875 305.578 132.109 304.859 130.641 303.422C129.203 301.953 128.484 300.188 128.484 298.125ZM124.266 354.703C125.953 354.422 127.109 354 127.734 353.438C128.672 352.594 129.141 351.078 129.141 348.891V320.672C129.141 318.734 128.812 317.422 128.156 316.734C127.5 316.016 126.203 315.484 124.266 315.141V312.797H142.688V349.266C142.688 351.359 143 352.703 143.625 353.297C144.25 353.891 145.422 354.359 147.141 354.703V357H124.266V354.703ZM151.172 354.703C153.016 354.484 154.297 354.047 155.016 353.391C155.734 352.734 156.125 351.469 156.188 349.594L156.281 346.781V320.672C156.281 318.672 155.938 317.312 155.25 316.594C154.562 315.875 153.203 315.391 151.172 315.141V312.797H169.406V320.344C171.438 317.688 173.453 315.578 175.453 314.016C177.453 312.453 179.766 311.672 182.391 311.672C184.359 311.672 186.125 312.312 187.688 313.594C189.281 314.844 190.078 316.688 190.078 319.125C190.078 321 189.516 322.547 188.391 323.766C187.297 324.984 185.859 325.594 184.078 325.594C182.047 325.594 180.281 324.641 178.781 322.734C177.312 320.828 176.281 319.875 175.688 319.875C174.406 319.875 173.109 320.672 171.797 322.266C170.516 323.828 169.875 326.078 169.875 329.016V347.156C169.875 350.344 170.328 352.344 171.234 353.156C172.172 353.938 174.016 354.453 176.766 354.703V357H151.172V354.703ZM217.734 334.594H220.5C222.062 341.75 224.578 346.953 228.047 350.203C231.547 353.453 235.547 355.078 240.047 355.078C244.422 355.078 247.531 353.969 249.375 351.75C251.219 349.5 252.141 347.141 252.141 344.672C252.141 341.797 251.172 339.453 249.234 337.641C247.953 336.453 245.375 334.906 241.5 333L235.266 329.906C229.078 326.844 224.719 323.812 222.188 320.812C219.656 317.812 218.391 314.109 218.391 309.703C218.391 305.016 220.062 300.641 223.406 296.578C226.781 292.516 231.938 290.484 238.875 290.484C242.406 290.484 245.812 291.016 249.094 292.078C252.406 293.141 254.297 293.672 254.766 293.672C255.828 293.672 256.562 293.375 256.969 292.781C257.375 292.156 257.703 291.344 257.953 290.344H260.812V311.25H258.141C256.859 306.406 254.594 302.234 251.344 298.734C248.125 295.234 244.203 293.484 239.578 293.484C236.328 293.484 233.75 294.375 231.844 296.156C229.969 297.906 229.031 300.047 229.031 302.578C229.031 305.609 229.922 307.875 231.703 309.375C233.453 310.906 237.344 313.156 243.375 316.125L250.594 319.688C253.812 321.281 256.375 323.047 258.281 324.984C261.844 328.609 263.625 333.016 263.625 338.203C263.625 343.047 261.703 347.625 257.859 351.938C254.047 356.219 247.922 358.359 239.484 358.359C237.547 358.359 235.578 358.172 233.578 357.797C231.609 357.453 229.656 356.906 227.719 356.156L225.844 355.453C225.406 355.328 224.984 355.234 224.578 355.172C224.172 355.078 223.828 355.031 223.547 355.031C222.547 355.031 221.859 355.328 221.484 355.922C221.109 356.484 220.781 357.297 220.5 358.359H217.734V334.594ZM288.891 351.516C290.453 351.516 291.906 351.047 293.25 350.109C294 349.547 294.891 348.672 295.922 347.484V333.469C293.359 334.094 291.109 335.078 289.172 336.422C285.891 338.703 284.25 341.609 284.25 345.141C284.25 347.234 284.719 348.828 285.656 349.922C286.625 350.984 287.703 351.516 288.891 351.516ZM270.281 348.047C270.281 343.734 272.359 340.312 276.516 337.781C280.672 335.25 287.188 332.703 296.062 330.141V323.156C296.062 320.312 295.453 318.219 294.234 316.875C293.047 315.5 290.922 314.812 287.859 314.812C286.141 314.812 284.719 315.141 283.594 315.797C282.5 316.422 281.953 317.219 281.953 318.188C281.953 318.562 282.016 318.875 282.141 319.125C282.266 319.375 282.453 319.641 282.703 319.922L283.266 320.578C283.703 321.109 284.047 321.703 284.297 322.359C284.578 322.984 284.719 323.656 284.719 324.375C284.719 326.188 284.109 327.594 282.891 328.594C281.703 329.562 280.312 330.047 278.719 330.047C276.875 330.047 275.297 329.5 273.984 328.406C272.703 327.312 272.062 325.734 272.062 323.672C272.062 319.984 273.797 317.062 277.266 314.906C280.734 312.75 285 311.672 290.062 311.672C295.5 311.672 300.047 312.719 303.703 314.812C307.328 316.938 309.141 320.844 309.141 326.531V349.781C309.141 350.469 309.312 351.062 309.656 351.562C310.031 352.031 310.438 352.266 310.875 352.266C311.25 352.266 311.578 352.203 311.859 352.078C312.172 351.922 312.641 351.531 313.266 350.906L314.719 352.922C312.844 355.109 310.766 356.641 308.484 357.516C307.047 358.078 305.531 358.359 303.938 358.359C301.094 358.359 299.016 357.531 297.703 355.875C296.953 354.938 296.406 353.547 296.062 351.703C293.406 354.359 290.406 356.234 287.062 357.328C285.031 358.016 283.031 358.359 281.062 358.359C278.438 358.359 275.984 357.531 273.703 355.875C271.422 354.188 270.281 351.578 270.281 348.047ZM317.391 354.703C319.078 354.297 320.266 353.766 320.953 353.109C321.672 352.422 322.031 351.016 322.031 348.891V300C322.031 297.969 321.703 296.641 321.047 296.016C320.391 295.391 319.172 294.875 317.391 294.469V292.125H335.578V348.891C335.578 351.016 335.922 352.406 336.609 353.062C337.297 353.719 338.516 354.266 340.266 354.703V357H317.391V354.703ZM344.672 335.016C344.672 328.328 346.719 322.75 350.812 318.281C354.938 313.812 360.109 311.578 366.328 311.578C372.672 311.578 377.859 313.859 381.891 318.422C385.953 322.984 387.984 328.516 387.984 335.016C387.984 341.422 385.984 346.938 381.984 351.562C377.984 356.156 372.766 358.453 366.328 358.453C360.078 358.453 354.906 356.219 350.812 351.75C346.719 347.25 344.672 341.672 344.672 335.016ZM358.781 335.016C358.781 341.734 359.125 346.438 359.812 349.125C360.906 353.281 363.078 355.359 366.328 355.359C369.422 355.359 371.453 353.766 372.422 350.578C373.391 347.391 373.875 342.203 373.875 335.016C373.875 327.859 373.359 322.688 372.328 319.5C371.328 316.281 369.344 314.672 366.375 314.672C363.125 314.672 360.953 316.75 359.859 320.906C359.141 323.688 358.781 328.391 358.781 335.016ZM392.109 354.703C393.859 354.484 395.141 354.016 395.953 353.297C396.797 352.547 397.219 351.078 397.219 348.891V320.672C397.219 318.734 396.875 317.391 396.188 316.641C395.531 315.891 394.172 315.391 392.109 315.141V312.797H410.297V319.688C411.828 317.375 413.766 315.469 416.109 313.969C418.484 312.438 421.109 311.672 423.984 311.672C428.109 311.672 431.297 312.734 433.547 314.859C435.828 316.984 436.969 320.719 436.969 326.062V349.266C436.969 351.422 437.328 352.812 438.047 353.438C438.797 354.062 440.031 354.484 441.75 354.703V357H419.203V354.703C420.922 354.359 422.094 353.891 422.719 353.297C423.344 352.703 423.656 351.359 423.656 349.266V326.016C423.656 323.828 423.438 322.188 423 321.094C422.25 319.125 420.766 318.141 418.547 318.141C416.891 318.141 415.359 318.75 413.953 319.969C412.578 321.156 411.516 322.359 410.766 323.578V349.266C410.766 351.359 411.078 352.703 411.703 353.297C412.328 353.891 413.5 354.359 415.219 354.703V357H392.109V354.703Z" fill="#846A49"/>
</svg>
