<svg width="170" height="51" viewBox="0 0 170 51" fill="none" xmlns="http://www.w3.org/2000/svg">
<path d="M7.84668 7.13672L17.6465 19.4561V10.916C17.6465 9.72461 17.4756 8.91895 17.1338 8.49902C16.665 7.93262 15.8789 7.65918 14.7754 7.67871V7.13672H21.3379V7.67871C20.498 7.78613 19.9316 7.92773 19.6387 8.10352C19.3555 8.26953 19.1309 8.54785 18.9648 8.93848C18.8086 9.31934 18.7305 9.97852 18.7305 10.916V27.4541H18.2324L4.7998 10.916V23.543C4.7998 24.6855 5.05859 25.457 5.57617 25.8574C6.10352 26.2578 6.7041 26.458 7.37793 26.458H7.84668V27H0.800781V26.458C1.89453 26.4482 2.65625 26.2236 3.08594 25.7842C3.51562 25.3447 3.73047 24.5977 3.73047 23.543V9.52441L3.30566 8.99707C2.88574 8.46973 2.51465 8.12305 2.19238 7.95703C1.87012 7.79102 1.40625 7.69824 0.800781 7.67871V7.13672H7.84668ZM30.2295 8.2793V16.3652H30.625C31.8848 16.3652 32.7979 15.9697 33.3643 15.1787C33.9307 14.3877 34.292 13.2207 34.4482 11.6777H35.0049V22.0781H34.4482C34.3311 20.9453 34.082 20.0176 33.7012 19.2949C33.3301 18.5723 32.8955 18.0889 32.3975 17.8447C31.8994 17.5908 31.1768 17.4639 30.2295 17.4639V23.0596C30.2295 24.1533 30.2734 24.8223 30.3613 25.0664C30.459 25.3105 30.6348 25.5107 30.8887 25.667C31.1426 25.8232 31.5527 25.9014 32.1191 25.9014H33.3057C35.1611 25.9014 36.6455 25.4717 37.7588 24.6123C38.8818 23.7529 39.6875 22.4443 40.1758 20.6865H40.7178L39.8242 27H22.6562V26.458H23.3154C23.8916 26.458 24.3555 26.3555 24.707 26.1504C24.9609 26.0137 25.1562 25.7793 25.293 25.4473C25.4004 25.2129 25.4541 24.5977 25.4541 23.6016V10.5352C25.4541 9.63672 25.4297 9.08496 25.3809 8.87988C25.2832 8.53809 25.1025 8.27441 24.8389 8.08887C24.4678 7.81543 23.96 7.67871 23.3154 7.67871H22.6562V7.13672H39.2822V13.0107H38.7256C38.4424 11.5752 38.042 10.5449 37.5244 9.91992C37.0166 9.29492 36.2939 8.83594 35.3564 8.54297C34.8096 8.36719 33.7842 8.2793 32.2803 8.2793H30.2295ZM71.8018 7.13672V7.67871C71.4307 7.70801 71.1182 7.81055 70.8643 7.98633C70.6104 8.16211 70.3857 8.43066 70.1904 8.79199C70.1318 8.90918 69.8242 9.66602 69.2676 11.0625L63.042 27.4541H62.4707L57.5488 14.6514L52.1289 27.4541H51.5869L45.0537 11.2383C44.3896 9.60742 43.9258 8.62109 43.6621 8.2793C43.3984 7.9375 42.9541 7.7373 42.3291 7.67871V7.13672H50.9424V7.67871C50.249 7.69824 49.7852 7.80566 49.5508 8.00098C49.3262 8.18652 49.2139 8.4209 49.2139 8.7041C49.2139 9.0752 49.4531 9.86133 49.9316 11.0625L53.8281 20.7012L56.9482 13.1719L56.1279 11.0625C55.6787 9.91016 55.332 9.14355 55.0879 8.7627C54.8438 8.37207 54.5605 8.09375 54.2383 7.92773C53.9258 7.76172 53.4619 7.67871 52.8467 7.67871V7.13672H62.4707V7.67871C61.7969 7.68848 61.3135 7.74219 61.0205 7.83984C60.8154 7.9082 60.6543 8.02539 60.5371 8.19141C60.4199 8.34766 60.3613 8.52832 60.3613 8.7334C60.3613 8.95801 60.5811 9.64648 61.0205 10.7988L64.6387 20.2031L67.876 11.6924C68.2178 10.8135 68.4277 10.2129 68.5059 9.89062C68.584 9.56836 68.623 9.27051 68.623 8.99707C68.623 8.59668 68.4863 8.28418 68.2129 8.05957C67.9395 7.8252 67.417 7.69824 66.6455 7.67871V7.13672H71.8018ZM100.894 7.13672V7.67871C100.239 7.7666 99.7363 7.95703 99.3848 8.25C98.8965 8.66016 98.125 9.77832 97.0703 11.6045L92.7637 18.7969V23.6016C92.7637 24.627 92.8174 25.2666 92.9248 25.5205C93.0322 25.7646 93.2422 25.9844 93.5547 26.1797C93.877 26.3652 94.3018 26.458 94.8291 26.458H95.9424V27H84.7949V26.458H85.835C86.4209 26.458 86.8848 26.3555 87.2266 26.1504C87.4805 26.0137 87.6807 25.7793 87.8271 25.4473C87.9346 25.2129 87.9883 24.5977 87.9883 23.6016V19.6172L83.3154 11.1064C82.3877 9.42676 81.7334 8.44043 81.3525 8.14746C80.9717 7.84473 80.4639 7.68848 79.8291 7.67871V7.13672H89.3506V7.67871H88.9258C88.3496 7.67871 87.9443 7.76172 87.71 7.92773C87.4854 8.09375 87.373 8.26953 87.373 8.45508C87.373 8.80664 87.7637 9.69043 88.5449 11.1064L92.1338 17.6836L95.708 11.6924C96.5967 10.2275 97.041 9.25586 97.041 8.77734C97.041 8.51367 96.9141 8.29395 96.6602 8.11816C96.3281 7.87402 95.7178 7.72754 94.8291 7.67871V7.13672H100.894ZM112.832 6.8584C115.996 6.74121 118.564 7.66406 120.537 9.62695C122.52 11.5898 123.511 14.0459 123.511 16.9951C123.511 19.5146 122.773 21.7314 121.299 23.6455C119.346 26.1846 116.587 27.4541 113.022 27.4541C109.448 27.4541 106.685 26.2432 104.731 23.8213C103.188 21.9072 102.417 19.6367 102.417 17.0098C102.417 14.0605 103.418 11.6045 105.42 9.6416C107.432 7.66895 109.902 6.74121 112.832 6.8584ZM113.008 7.7959C111.191 7.7959 109.81 8.72363 108.862 10.5791C108.091 12.1025 107.705 14.29 107.705 17.1416C107.705 20.5303 108.301 23.0352 109.492 24.6562C110.322 25.7891 111.484 26.3555 112.979 26.3555C113.984 26.3555 114.824 26.1113 115.498 25.623C116.357 24.998 117.026 24.002 117.505 22.6348C117.983 21.2578 118.223 19.4658 118.223 17.2588C118.223 14.6318 117.979 12.6689 117.49 11.3701C117.002 10.0615 116.377 9.13867 115.615 8.60156C114.863 8.06445 113.994 7.7959 113.008 7.7959ZM132.563 17.9473V23.5137C132.563 24.5879 132.627 25.2666 132.754 25.5498C132.891 25.8232 133.125 26.043 133.457 26.209C133.789 26.375 134.409 26.458 135.317 26.458V27H125.151V26.458C126.069 26.458 126.689 26.375 127.012 26.209C127.344 26.0332 127.573 25.8086 127.7 25.5352C127.837 25.2617 127.905 24.5879 127.905 23.5137V10.623C127.905 9.54883 127.837 8.875 127.7 8.60156C127.573 8.31836 127.344 8.09375 127.012 7.92773C126.68 7.76172 126.06 7.67871 125.151 7.67871V7.13672H134.38C136.782 7.13672 138.54 7.30273 139.653 7.63477C140.767 7.9668 141.675 8.58203 142.378 9.48047C143.081 10.3691 143.433 11.4141 143.433 12.6152C143.433 14.0801 142.905 15.291 141.851 16.248C141.177 16.8535 140.234 17.3076 139.023 17.6104L143.799 24.334C144.424 25.2031 144.868 25.7451 145.132 25.96C145.532 26.2627 145.996 26.4287 146.523 26.458V27H140.269L133.867 17.9473H132.563ZM132.563 8.20605V16.9072H133.398C134.756 16.9072 135.771 16.7852 136.445 16.541C137.119 16.2871 137.646 15.8379 138.027 15.1934C138.418 14.5391 138.613 13.6895 138.613 12.6445C138.613 11.1309 138.257 10.0127 137.544 9.29004C136.841 8.56738 135.703 8.20605 134.131 8.20605H132.563ZM158.77 14.7393L165.757 23.4844C166.743 24.7148 167.593 25.5498 168.306 25.9893C168.823 26.3018 169.37 26.458 169.946 26.458V27H159.604V26.458C160.259 26.3994 160.679 26.2969 160.864 26.1504C161.06 26.0039 161.157 25.8232 161.157 25.6084C161.157 25.1982 160.708 24.4268 159.81 23.2939L155.254 17.5664L154.521 18.1816V23.6016C154.521 24.6367 154.58 25.2812 154.697 25.5352C154.814 25.7891 155.039 26.0088 155.371 26.1943C155.703 26.3701 156.235 26.458 156.968 26.458V27H146.948V26.458H147.607C148.184 26.458 148.647 26.3555 148.999 26.1504C149.253 26.0137 149.448 25.7793 149.585 25.4473C149.692 25.2129 149.746 24.5977 149.746 23.6016V10.5352C149.746 9.51953 149.692 8.88477 149.585 8.63086C149.478 8.37695 149.258 8.15723 148.926 7.97168C148.604 7.77637 148.164 7.67871 147.607 7.67871H146.948V7.13672H156.836V7.67871C156.162 7.67871 155.649 7.77637 155.298 7.97168C155.044 8.1084 154.844 8.33789 154.697 8.66016C154.58 8.9043 154.521 9.5293 154.521 10.5352V16.7168L161.89 10.7549C162.915 9.9248 163.428 9.26074 163.428 8.7627C163.428 8.3916 163.218 8.09863 162.798 7.88379C162.583 7.77637 162.051 7.70801 161.201 7.67871V7.13672H168.95V7.67871C168.257 7.72754 167.71 7.85449 167.31 8.05957C166.919 8.25488 166.011 8.92871 164.585 10.0811L158.77 14.7393Z" fill="#846A49"/>
<path d="M41.2251 37.2407H42.6973V41.6865H48.293V37.2407H49.7651V48H48.293V42.9683H42.6973V48H41.2251V37.2407ZM57.5508 43.5908L55.9175 38.8374L54.1816 43.5908H57.5508ZM55.1558 37.2407H56.8037L60.7075 48H59.1108L58.0195 44.7773H53.7642L52.5996 48H51.1055L55.1558 37.2407ZM62.3628 37.2407H63.835V48H62.3628V37.2407ZM71.2104 42.1699C71.894 42.1699 72.4336 42.0332 72.8291 41.7598C73.2295 41.4863 73.4297 40.9932 73.4297 40.2803C73.4297 39.5137 73.1514 38.9912 72.5947 38.7129C72.2969 38.5664 71.8989 38.4932 71.4009 38.4932H67.8413V42.1699H71.2104ZM66.3838 37.2407H71.3643C72.1846 37.2407 72.8608 37.3604 73.3931 37.5996C74.4038 38.0586 74.9092 38.9058 74.9092 40.1411C74.9092 40.7856 74.7749 41.313 74.5063 41.7231C74.2427 42.1333 73.8716 42.4629 73.3931 42.7119C73.813 42.8828 74.1279 43.1074 74.3379 43.3857C74.5527 43.6641 74.6724 44.1157 74.6968 44.7407L74.748 46.1836C74.7627 46.5938 74.7969 46.8989 74.8506 47.0991C74.9385 47.4409 75.0947 47.6606 75.3193 47.7583V48H73.5322C73.4834 47.9072 73.4443 47.7876 73.415 47.6411C73.3857 47.4946 73.3613 47.2114 73.3418 46.7915L73.2539 44.9971C73.2197 44.2939 72.9585 43.8228 72.4702 43.5835C72.1919 43.4517 71.7549 43.3857 71.1592 43.3857H67.8413V48H66.3838V37.2407ZM82.1748 44.5283C82.209 45.1387 82.353 45.6343 82.6069 46.0151C83.0903 46.728 83.9424 47.0845 85.1631 47.0845C85.71 47.0845 86.208 47.0063 86.6572 46.8501C87.5264 46.5474 87.9609 46.0054 87.9609 45.2241C87.9609 44.6382 87.7778 44.2207 87.4116 43.9717C87.0405 43.7275 86.4595 43.5151 85.6685 43.3345L84.2109 43.0049C83.2588 42.79 82.585 42.5532 82.1895 42.2944C81.5059 41.8452 81.1641 41.1738 81.1641 40.2803C81.1641 39.3135 81.4985 38.52 82.1675 37.8999C82.8364 37.2798 83.7837 36.9697 85.0093 36.9697C86.1372 36.9697 87.0942 37.2432 87.8804 37.79C88.6714 38.332 89.0669 39.2012 89.0669 40.3975H87.6973C87.624 39.8213 87.4678 39.3794 87.2285 39.0718C86.7842 38.5103 86.0298 38.2295 84.9653 38.2295C84.106 38.2295 83.4883 38.4102 83.1123 38.7715C82.7363 39.1328 82.5483 39.5527 82.5483 40.0312C82.5483 40.5586 82.7681 40.9443 83.2075 41.1885C83.4956 41.3447 84.1475 41.54 85.1631 41.7744L86.6719 42.1187C87.3994 42.2847 87.9609 42.5117 88.3564 42.7998C89.04 43.3027 89.3818 44.0327 89.3818 44.9897C89.3818 46.1812 88.9473 47.0332 88.0781 47.5459C87.2139 48.0586 86.208 48.3149 85.0605 48.3149C83.7227 48.3149 82.6753 47.9731 81.9185 47.2896C81.1616 46.6108 80.7905 45.6904 80.8052 44.5283H82.1748ZM96.75 43.5908L95.1167 38.8374L93.3809 43.5908H96.75ZM94.355 37.2407H96.0029L99.9067 48H98.3101L97.2188 44.7773H92.9634L91.7988 48H90.3047L94.355 37.2407ZM101.232 37.2407H102.69V46.7183H108.139V48H101.232V37.2407ZM114.226 36.9478C116.125 36.9478 117.531 37.5581 118.444 38.7788C119.157 39.731 119.514 40.9492 119.514 42.4336C119.514 44.04 119.106 45.3755 118.291 46.4399C117.333 47.6899 115.969 48.3149 114.196 48.3149C112.541 48.3149 111.24 47.7681 110.292 46.6743C109.448 45.6196 109.025 44.2866 109.025 42.6753C109.025 41.2202 109.387 39.9751 110.109 38.9399C111.037 37.6118 112.409 36.9478 114.226 36.9478ZM114.372 47.0112C115.656 47.0112 116.584 46.5522 117.155 45.6343C117.731 44.7114 118.02 43.6519 118.02 42.4556C118.02 41.1909 117.688 40.1729 117.023 39.4014C116.364 38.6299 115.461 38.2441 114.313 38.2441C113.2 38.2441 112.292 38.6274 111.589 39.394C110.886 40.1558 110.534 41.2812 110.534 42.7705C110.534 43.9619 110.834 44.9678 111.435 45.7881C112.041 46.6035 113.02 47.0112 114.372 47.0112ZM121.257 37.2407H122.978L128.413 45.9565V37.2407H129.797V48H128.164L122.648 39.2915V48H121.257V37.2407Z" fill="#846A49"/>
</svg>
